HIERARCHY
ROOT Hips
{
	OFFSET 0.00000 0.00000 0.00000
	CHANNELS 6 Xposition Yposition Zposition Yrotation Zrotation Xrotation 
	JOINT Lumbar
	{
		OFFSET 0 0 0
		CHANNELS 3 Zrotation Xrotation Yrotation
		JOINT Neck
		{
			OFFSET 0.00 0.2701 0.00
			CHANNELS 3 Zrotation Xrotation Yrotation
			End Site
			{
				OFFSET 0.00 0.1379 0.00
			}
		}
		JOINT RightShoulder
		{
			OFFSET 0.0119 0.2289 0.1181
			CHANNELS 3 Zrotation Xrotation Yrotation
			JOINT RightElbow
			{
				OFFSET 0.00 -0.1475 0.00
				CHANNELS 2 Zrotation Yrotation
				JOINT RightWrist
				{
					OFFSET 0.00 -0.1605 0.00
					CHANNELS 2 Zrotation Xrotation
					End Site
					{
						OFFSET 0.0040 -0.1068 0.0006
					}
				}
			}
		}
		JOINT LeftShoulder
		{
			OFFSET 0.0119 0.2289 -0.1181
			CHANNELS 3 Zrotation Xrotation Yrotation
			JOINT LeftElbow
			{
				OFFSET 0.00 -0.1475 0.00
				CHANNELS 2 Zrotation Yrotation
				JOINT LeftWrist
				{
					OFFSET 0.00 -0.1605 0.00
					CHANNELS 2 Zrotation Xrotation
					End Site
					{
						OFFSET 0.0040 -0.1068 -0.0006
					}
				}
			}
		}
	}
	JOINT RightHip
	{
		OFFSET 0.0316 -0.0424 0.0458
		CHANNELS 3 Zrotation Xrotation Yrotation
		JOINT RightKnee
		{
			OFFSET 0.00 -0.2438 0.00
			CHANNELS 1 Zrotation
			JOINT RightAnkle
			{
				OFFSET 0.00 -0.2449 0.00
				CHANNELS 3 Zrotation Xrotation Yrotation
				End Site
				{
					OFFSET 0.1237 -0.0542 0.0051
				}
			}
		}
	}
	JOINT LeftHip
	{
		OFFSET 0.0316 -0.0424 -0.0458
		CHANNELS 3 Zrotation Xrotation Yrotation
		JOINT LeftKnee
		{
			OFFSET 0.00 -0.2438 0.00
			CHANNELS 1 Zrotation
			JOINT LeftAnkle
			{
				OFFSET 0.00 -0.2449 0.00
				CHANNELS 3 Zrotation Xrotation Yrotation
				End Site
				{
					OFFSET 0.1237 -0.0542 -0.0051
				}
			}
		}
	}
}
MOTION
Frames: 17
Frame Time: 0.02
0.35597 0.34357 0.0163 178.89954 0 -5.11977 -7.39235 6.75699 -2.93164 -15.64353 7.84403 2.40549 42.29424 -38.6001 38.5484 87.03731 59.91266 -7.0088 6.62152 49.5992 17.94768 -35.6633 89.73818 -69.17923 -35.61918 1.55842 73.6222 -2.17209 -6.98865 -87.21527 9.10954 -1.87641 -0.60929 77.23298 6.80381 -1.78609 -89.50527 12.14325 0.39257 -1.26708
0.35596 0.34355 0.01623 178.88818 0 -5.09787 -7.47195 6.71581 -2.97702 -15.85288 7.88434 2.44694 42.53154 -38.69082 38.61881 87.05694 59.95244 -6.98828 6.61427 49.35437 17.8142 -35.91184 88.69892 -69.74107 -35.62916 1.62853 73.63565 -2.16119 -6.9711 -87.22857 9.11073 -1.88096 -0.61776 77.22825 6.81687 -1.76959 -89.50702 12.1466 0.38778 -1.27434
0.35595 0.34353 0.01615 178.87453 0 -5.07003 -7.54756 6.67543 -3.00823 -15.99719 7.89119 2.483 42.70264 -38.75543 38.66399 87.04877 60.05378 -6.96737 6.5994 49.23294 17.81925 -36.23793 87.74088 -70.47213 -35.69713 1.71841 73.65074 -2.14188 -6.94101 -87.24241 9.10991 -1.88941 -0.63383 77.21919 6.83642 -1.74329 -89.50519 12.15001 0.37885 -1.28664
0.35593 0.34352 0.01608 178.86256 0 -5.04532 -7.62413 6.63584 -3.04378 -16.16675 7.91032 2.51771 42.90147 -38.82521 38.71905 87.04959 60.12872 -6.94825 6.58705 49.06738 17.76607 -36.52577 86.75154 -71.10587 -35.72989 1.7967 73.66471 -2.127 -6.91687 -87.25588 9.11014 -1.89602 -0.64627 77.21212 6.85201 -1.72203 -89.50491 12.15336 0.37215 -1.29612
0.35592 0.3435 0.01599 178.84816 0 -5.01867 -7.70474 6.59141 -3.08231 -16.35114 7.94258 2.56286 43.1061 -38.92416 38.77949 87.06696 60.19824 -6.92252 6.57789 48.8497 17.69731 -36.8287 85.74356 -71.82695 -35.80073 1.8863 73.68024 -2.10993 -6.89177 -87.26995 9.10984 -1.90291 -0.65941 77.20486 6.87145 -1.69846 -89.50484 12.15676 0.36414 -1.30768
0.35591 0.34348 0.01593 178.83815 0 -4.99473 -7.77576 6.55722 -3.11348 -16.49013 7.9392 2.58698 43.28459 -38.95546 38.82375 87.04259 60.29346 -6.90987 6.56064 48.77179 17.69226 -37.11669 84.79275 -72.4058 -35.80666 1.95694 73.69289 -2.09525 -6.8657 -87.28284 9.11014 -1.91013 -0.6729 77.19701 6.88464 -1.67731 -89.50351 12.16011 0.35778 -1.3162
0.35588 0.34349 0.01592 178.84114 0 -4.97931 -7.82191 6.55121 -3.12843 -16.52411 7.84586 2.55625 43.40633 -38.81032 38.82292 86.91232 60.4415 -6.94008 6.52208 49.0348 17.82877 -37.35658 83.96744 -72.55092 -35.60778 1.96999 73.69739 -2.08947 -6.8395 -87.29287 9.11262 -1.91748 -0.68577 77.18855 6.87805 -1.66536 -89.49971 12.16336 0.35726 -1.31451
0.35586 0.34351 0.01592 178.84852 0 -4.96692 -7.85832 6.55546 -3.1372 -16.51451 7.71758 2.505 43.50494 -38.59698 38.80791 86.74027 60.61371 -6.98238 6.47586 49.43741 18.02392 -37.57617 83.19805 -72.54667 -35.34321 1.96327 73.6989 -2.08628 -6.81286 -87.3016 9.11576 -1.92498 -0.6987 77.17965 6.86515 -1.65617 -89.49478 12.16658 0.35848 -1.3097
0.35583 0.34352 0.01592 178.85362 0 -4.95341 -7.89882 6.55492 -3.14924 -16.52226 7.60506 2.46274 43.61501 -38.41247 38.80391 86.58574 60.77659 -7.01479 6.43383 49.78536 18.19212 -37.79712 82.41073 -72.61061 -35.11625 1.96587 73.70166 -2.08166 -6.78674 -87.31058 9.11856 -1.9323 -0.71146 77.17097 6.85579 -1.6456 -89.49028 12.16981 0.35867 -1.30674
0.3558 0.34353 0.01592 178.85981 0 -4.93856 -7.9409 6.55487 -3.15875 -16.53731 7.49214 2.42168 43.71804 -38.23705 38.78013 86.43698 60.93441 -7.06543 6.38865 50.09889 18.36716 -38.05459 81.59593 -72.67987 -34.8596 1.96792 73.705 -2.07777 -6.75877 -87.32104 9.12147 -1.94024 -0.72513 77.16207 6.84384 -1.63515 -89.48591 12.17304 0.35969 -1.30216
0.35578 0.34355 0.01592 178.86482 0 -4.92736 -7.97707 6.55629 -3.17223 -16.52856 7.37188 2.37325 43.83194 -38.02578 38.79405 86.26596 61.10802 -7.08137 6.34814 50.51774 18.53922 -38.2294 80.84913 -72.69947 -34.64717 1.96595 73.70635 -2.07313 -6.7348 -87.3281 9.12432 -1.94687 -0.73677 77.15359 6.83567 -1.62532 -89.48114 12.17627 0.35949 -1.30008
0.35576 0.34357 0.01593 178.8655 0 -4.92517 -8.00228 6.55875 -3.19872 -16.45769 7.24264 2.31035 43.97474 -37.74108 38.9194 86.04969 61.31596 -6.99498 6.32391 51.17478 18.69501 -38.18689 80.28782 -72.62528 -34.5832 1.9594 73.70319 -2.06546 -6.72112 -87.32594 9.12678 -1.94983 -0.7431 77.14614 6.83989 -1.61576 -89.47494 12.17941 0.35517 -1.30631
0.35575 0.34359 0.01594 178.86483 0 -4.92665 -8.02135 6.56241 -3.2294 -16.36597 7.1069 2.2406 44.13081 -37.42107 39.08247 85.81143 61.53913 -6.8739 6.3044 51.93556 18.84376 -38.06034 79.79034 -72.50414 -34.56364 1.94908 73.69809 -2.05705 -6.71168 -87.32042 9.12915 -1.95145 -0.7473 77.13919 6.84806 -1.60689 -89.46852 12.18257 0.34965 -1.31502
0.35574 0.34361 0.01595 178.86482 0 -4.92672 -8.0413 6.56586 -3.25789 -16.28889 6.9725 2.1735 44.28574 -37.1116 39.22598 85.57947 61.75734 -6.77102 6.28177 52.66067 18.99103 -37.96797 79.2559 -72.39915 -34.51693 1.93929 73.69366 -2.04928 -6.70093 -87.31652 9.13161 -1.95369 -0.75223 77.13215 6.85413 -1.59826 -89.46265 12.18579 0.34492 -1.32215
0.35573 0.34364 0.01596 178.86483 0 -4.92585 -8.06896 6.56827 -3.28735 -16.18874 6.8436 2.10772 44.41955 -36.82321 39.37959 85.3618 61.96863 -6.65829 6.26298 53.34336 19.16071 -37.89201 78.75755 -72.3109 -34.49804 1.93381 73.68996 -2.04037 -6.68764 -87.3122 9.13393 -1.9559 -0.75813 77.12449 6.86122 -1.58744 -89.45485 12.1887 0.33922 -1.33106
0.35571 0.34366 0.01598 178.86434 0 -4.92774 -8.07926 6.57297 -3.31585 -16.13191 6.70225 2.0377 44.60031 -36.48311 39.52082 85.1095 62.19703 -6.55769 6.23742 54.13586 19.28061 -37.76204 78.19782 -72.17864 -34.43174 1.91871 73.68441 -2.03354 -6.68056 -87.30798 9.13645 -1.95783 -0.76153 77.11828 6.86725 -1.58127 -89.45102 12.19225 0.33524 -1.33691
0.35566 0.34369 0.01599 178.86333 0 -4.93658 -8.04293 6.58398 -3.34088 -16.20308 6.52769 1.95884 44.91201 -36.01219 39.62308 84.76863 62.47422 -6.49875 6.19202 55.21683 19.26933 -37.50468 77.45731 -71.93637 -34.23058 1.87809 73.6734 -2.03332 -6.6905 -87.3049 9.14021 -1.95951 -0.75825 77.11554 6.86901 -1.58822 -89.45841 12.19781 0.33624 -1.33361
